<svg xmlns="http://www.w3.org/2000/svg" xmlns:svgjs="http://svgjs.dev/svgjs" xmlns:xlink="http://www.w3.org/1999/xlink" version="1.1" viewBox="0 0 1422 800"><g shape-rendering="crispEdges"><g><use x="37.5" y="37.5" fill="#0d48a1" xlink:href="#SvgjsSymbol1000"/><use x="37.5" y="37.5" fill="#5473d3" xlink:href="#SvgjsSymbol1001"/><use x="37.5" y="37.5" fill="#002272" xlink:href="#SvgjsSymbol1002"/></g><g><use x="56.25" y="56.25" fill="#0d48a1" xlink:href="#SvgjsSymbol1003"/><use x="56.25" y="56.25" fill="#5473d3" xlink:href="#SvgjsSymbol1004"/><use x="56.25" y="56.25" fill="#002272" xlink:href="#SvgjsSymbol1005"/></g><g><use x="93.75" y="18.75" fill="#0d48a1" xlink:href="#SvgjsSymbol1003"/><use x="93.75" y="18.75" fill="#5473d3" xlink:href="#SvgjsSymbol1004"/><use x="93.75" y="18.75" fill="#002272" xlink:href="#SvgjsSymbol1005"/></g><g><use x="1237.5" y="37.5" fill="#0d48a1" xlink:href="#SvgjsSymbol1009"/><use x="1237.5" y="37.5" fill="#5473d3" xlink:href="#SvgjsSymbol1010"/><use x="1237.5" y="37.5" fill="#002272" xlink:href="#SvgjsSymbol1011"/></g><g><use x="1225" y="125" fill="#ffb703" xlink:href="#SvgjsSymbol1012"/><use x="1225" y="125" fill="#ffe94e" xlink:href="#SvgjsSymbol1013"/><use x="1225" y="125" fill="#c78700" xlink:href="#SvgjsSymbol1014"/></g><g><use x="1325" y="100" fill="#ffb703" xlink:href="#SvgjsSymbol1012"/><use x="1325" y="100" fill="#ffe94e" xlink:href="#SvgjsSymbol1013"/><use x="1325" y="100" fill="#c78700" xlink:href="#SvgjsSymbol1014"/></g><g><use x="125" y="75" fill="#ffb703" xlink:href="#SvgjsSymbol1012"/><use x="125" y="75" fill="#ffe94e" xlink:href="#SvgjsSymbol1013"/><use x="125" y="75" fill="#c78700" xlink:href="#SvgjsSymbol1014"/></g><g><use x="75" y="525" fill="#ffb703" xlink:href="#SvgjsSymbol1015"/><use x="75" y="525" fill="#ffe94e" xlink:href="#SvgjsSymbol1016"/><use x="75" y="525" fill="#c78700" xlink:href="#SvgjsSymbol1017"/></g><g><use x="137.5" y="525" fill="#0d48a1" xlink:href="#SvgjsSymbol1018"/><use x="137.5" y="525" fill="#5473d3" xlink:href="#SvgjsSymbol1019"/><use x="137.5" y="525" fill="#002272" xlink:href="#SvgjsSymbol1020"/></g><g><use x="187.5" y="550" fill="#0d48a1" xlink:href="#SvgjsSymbol1018"/><use x="187.5" y="550" fill="#5473d3" xlink:href="#SvgjsSymbol1019"/><use x="187.5" y="550" fill="#002272" xlink:href="#SvgjsSymbol1020"/></g><g><use x="87.5" y="262.5" fill="#0d48a1" xlink:href="#SvgjsSymbol1018"/><use x="87.5" y="262.5" fill="#5473d3" xlink:href="#SvgjsSymbol1019"/><use x="87.5" y="262.5" fill="#002272" xlink:href="#SvgjsSymbol1020"/></g><g><use x="75" y="550" fill="#0d48a1" xlink:href="#SvgjsSymbol1027"/><use x="75" y="550" fill="#5473d3" xlink:href="#SvgjsSymbol1028"/></g><g><use x="1225" y="125" fill="#0d48a1" xlink:href="#SvgjsSymbol1027"/><use x="1225" y="125" fill="#5473d3" xlink:href="#SvgjsSymbol1028"/></g><g><use x="1281.25" y="656.25" fill="#0d48a1" xlink:href="#SvgjsSymbol1030"/><use x="1281.25" y="656.25" fill="#5473d3" xlink:href="#SvgjsSymbol1031"/><use x="1281.25" y="656.25" fill="#002272" xlink:href="#SvgjsSymbol1032"/></g><g><use x="68.75" y="718.75" fill="#0d48a1" xlink:href="#SvgjsSymbol1033"/><use x="68.75" y="718.75" fill="#5473d3" xlink:href="#SvgjsSymbol1034"/><use x="68.75" y="718.75" fill="#002272" xlink:href="#SvgjsSymbol1035"/></g><g><use x="56.25" y="362.5" fill="#0d48a1" xlink:href="#SvgjsSymbol1033"/><use x="56.25" y="362.5" fill="#5473d3" xlink:href="#SvgjsSymbol1034"/><use x="56.25" y="362.5" fill="#002272" xlink:href="#SvgjsSymbol1035"/></g><g><use x="1356.25" y="18.75" fill="#0d48a1" xlink:href="#SvgjsSymbol1033"/><use x="1356.25" y="18.75" fill="#5473d3" xlink:href="#SvgjsSymbol1034"/><use x="1356.25" y="18.75" fill="#002272" xlink:href="#SvgjsSymbol1035"/></g><g><use x="1375" y="612.5" fill="#0d48a1" xlink:href="#SvgjsSymbol1036"/><use x="1375" y="612.5" fill="#5473d3" xlink:href="#SvgjsSymbol1037"/><use x="1375" y="612.5" fill="#002272" xlink:href="#SvgjsSymbol1038"/></g><g><use x="1237.5" y="725" fill="#0d48a1" xlink:href="#SvgjsSymbol1036"/><use x="1237.5" y="725" fill="#5473d3" xlink:href="#SvgjsSymbol1037"/><use x="1237.5" y="725" fill="#002272" xlink:href="#SvgjsSymbol1038"/></g><g><use x="1237.5" y="687.5" fill="#0d48a1" xlink:href="#SvgjsSymbol1039"/><use x="1237.5" y="687.5" fill="#5473d3" xlink:href="#SvgjsSymbol1040"/><use x="1237.5" y="687.5" fill="#002272" xlink:href="#SvgjsSymbol1041"/></g><g><use x="1293.75" y="768.75" fill="#0d48a1" xlink:href="#SvgjsSymbol1039"/><use x="1293.75" y="768.75" fill="#5473d3" xlink:href="#SvgjsSymbol1040"/><use x="1293.75" y="768.75" fill="#002272" xlink:href="#SvgjsSymbol1041"/></g><g><use x="1250" y="493.75" fill="#0d48a1" xlink:href="#SvgjsSymbol1039"/><use x="1250" y="493.75" fill="#5473d3" xlink:href="#SvgjsSymbol1040"/><use x="1250" y="493.75" fill="#002272" xlink:href="#SvgjsSymbol1041"/></g><g><use x="1356.25" y="231.25" fill="#0d48a1" xlink:href="#SvgjsSymbol1039"/><use x="1356.25" y="231.25" fill="#5473d3" xlink:href="#SvgjsSymbol1040"/><use x="1356.25" y="231.25" fill="#002272" xlink:href="#SvgjsSymbol1041"/></g><g><use x="31.25" y="162.5" fill="#0d48a1" xlink:href="#SvgjsSymbol1039"/><use x="31.25" y="162.5" fill="#5473d3" xlink:href="#SvgjsSymbol1040"/><use x="31.25" y="162.5" fill="#002272" xlink:href="#SvgjsSymbol1041"/></g><g><use x="181.25" y="37.5" fill="#0d48a1" xlink:href="#SvgjsSymbol1039"/><use x="181.25" y="37.5" fill="#5473d3" xlink:href="#SvgjsSymbol1040"/><use x="181.25" y="37.5" fill="#002272" xlink:href="#SvgjsSymbol1041"/></g><g><use x="162.5" y="625" fill="#0d48a1" xlink:href="#SvgjsSymbol1039"/><use x="162.5" y="625" fill="#5473d3" xlink:href="#SvgjsSymbol1040"/><use x="162.5" y="625" fill="#002272" xlink:href="#SvgjsSymbol1041"/></g><g><use x="175" y="650" fill="#0d48a1" xlink:href="#SvgjsSymbol1039"/><use x="175" y="650" fill="#5473d3" xlink:href="#SvgjsSymbol1040"/><use x="175" y="650" fill="#002272" xlink:href="#SvgjsSymbol1041"/></g><g><use x="212.5" y="737.5" fill="#0d48a1" xlink:href="#SvgjsSymbol1039"/><use x="212.5" y="737.5" fill="#5473d3" xlink:href="#SvgjsSymbol1040"/><use x="212.5" y="737.5" fill="#002272" xlink:href="#SvgjsSymbol1041"/></g><g><use x="312.5" y="81.25" fill="#0d48a1" xlink:href="#SvgjsSymbol1039"/><use x="312.5" y="81.25" fill="#5473d3" xlink:href="#SvgjsSymbol1040"/><use x="312.5" y="81.25" fill="#002272" xlink:href="#SvgjsSymbol1041"/></g><g><use x="1250" y="275" fill="#0d48a1" xlink:href="#SvgjsSymbol1042"/><use x="1250" y="275" fill="#5473d3" xlink:href="#SvgjsSymbol1043"/><use x="1250" y="275" fill="#002272" xlink:href="#SvgjsSymbol1044"/></g></g><symbol id="SvgjsSymbol1000"><polygon points="0 12.5 25 0 50 12.5 25 25"/></symbol><symbol id="SvgjsSymbol1001"><polygon points="0 12.5 25 25 25 50 0 37.5"/></symbol><symbol id="SvgjsSymbol1002"><polygon points="25 25 50 12.5 50 37.5 25 50"/></symbol><symbol id="SvgjsSymbol1003"><polygon points="0 18.75 37.5 0 75 18.75 37.5 37.5"/></symbol><symbol id="SvgjsSymbol1004"><polygon points="0 18.75 37.5 37.5 37.5 75 0 56.25"/></symbol><symbol id="SvgjsSymbol1005"><polygon points="37.5 37.5 75 18.75 75 56.25 37.5 75"/></symbol><symbol id="SvgjsSymbol1006"><polygon points="0 12.5 25 0 50 12.5 25 25"/></symbol><symbol id="SvgjsSymbol1007"><polygon points="0 12.5 25 25 25 50 0 37.5"/></symbol><symbol id="SvgjsSymbol1008"><polygon points="25 25 50 12.5 50 37.5 25 50"/></symbol><symbol id="SvgjsSymbol1009"><polygon points="0 37.5 75 0 150 37.5 75 75"/></symbol><symbol id="SvgjsSymbol1010"><polygon points="0 37.5 75 75 75 150 0 112.5"/></symbol><symbol id="SvgjsSymbol1011"><polygon points="75 75 150 37.5 150 112.5 75 150"/></symbol><symbol id="SvgjsSymbol1012"><polygon points="0 12.5 25 0 50 12.5 25 25"/></symbol><symbol id="SvgjsSymbol1013"><polygon points="0 12.5 25 25 25 50 0 37.5"/></symbol><symbol id="SvgjsSymbol1014"><polygon points="25 25 50 12.5 50 37.5 25 50"/></symbol><symbol id="SvgjsSymbol1015"><polygon points="0 37.5 75 0 150 37.5 75 75"/></symbol><symbol id="SvgjsSymbol1016"><polygon points="0 37.5 75 75 75 150 0 112.5"/></symbol><symbol id="SvgjsSymbol1017"><polygon points="75 75 150 37.5 150 112.5 75 150"/></symbol><symbol id="SvgjsSymbol1018"><polygon points="0 12.5 25 0 50 12.5 25 25"/></symbol><symbol id="SvgjsSymbol1019"><polygon points="0 12.5 25 25 25 50 0 37.5"/></symbol><symbol id="SvgjsSymbol1020"><polygon points="25 25 50 12.5 50 37.5 25 50"/></symbol><symbol id="SvgjsSymbol1021"><polygon points="0 37.5 75 0 150 37.5 75 75"/></symbol><symbol id="SvgjsSymbol1022"><polygon points="0 37.5 75 75 75 150 0 112.5"/></symbol><symbol id="SvgjsSymbol1023"><polygon points="75 75 150 37.5 150 112.5 75 150"/></symbol><symbol id="SvgjsSymbol1024"><polygon points="0 18.75 37.5 0 75 18.75 37.5 37.5"/></symbol><symbol id="SvgjsSymbol1025"><polygon points="0 18.75 37.5 37.5 37.5 75 0 56.25"/></symbol><symbol id="SvgjsSymbol1026"><polygon points="37.5 37.5 75 18.75 75 56.25 37.5 75"/></symbol><symbol id="SvgjsSymbol1027"><polygon points="0 12.5 25 0 50 12.5 25 25"/></symbol><symbol id="SvgjsSymbol1028"><polygon points="0 12.5 25 25 25 50 0 37.5"/></symbol><symbol id="SvgjsSymbol1029"><polygon points="25 25 50 12.5 50 37.5 25 50"/></symbol><symbol id="SvgjsSymbol1030"><polygon points="0 31.25 62.5 0 125 31.25 62.5 62.5"/></symbol><symbol id="SvgjsSymbol1031"><polygon points="0 31.25 62.5 62.5 62.5 125 0 93.75"/></symbol><symbol id="SvgjsSymbol1032"><polygon points="62.5 62.5 125 31.25 125 93.75 62.5 125"/></symbol><symbol id="SvgjsSymbol1033"><polygon points="0 6.25 12.5 0 25 6.25 12.5 12.5"/></symbol><symbol id="SvgjsSymbol1034"><polygon points="0 6.25 12.5 12.5 12.5 25 0 18.75"/></symbol><symbol id="SvgjsSymbol1035"><polygon points="12.5 12.5 25 6.25 25 18.75 12.5 25"/></symbol><symbol id="SvgjsSymbol1036"><polygon points="0 12.5 25 0 50 12.5 25 25"/></symbol><symbol id="SvgjsSymbol1037"><polygon points="0 12.5 25 25 25 50 0 37.5"/></symbol><symbol id="SvgjsSymbol1038"><polygon points="25 25 50 12.5 50 37.5 25 50"/></symbol><symbol id="SvgjsSymbol1039"><polygon points="0 6.25 12.5 0 25 6.25 12.5 12.5"/></symbol><symbol id="SvgjsSymbol1040"><polygon points="0 6.25 12.5 12.5 12.5 25 0 18.75"/></symbol><symbol id="SvgjsSymbol1041"><polygon points="12.5 12.5 25 6.25 25 18.75 12.5 25"/></symbol><symbol id="SvgjsSymbol1042"><polygon points="0 12.5 25 0 50 12.5 25 25"/></symbol><symbol id="SvgjsSymbol1043"><polygon points="0 12.5 25 25 25 50 0 37.5"/></symbol><symbol id="SvgjsSymbol1044"><polygon points="25 25 50 12.5 50 37.5 25 50"/></symbol></svg>